<svg width="86" height="74" viewBox="0 0 86 74" fill="none" xmlns="http://www.w3.org/2000/svg">
<path d="M74.8644 1.94121C72.8751 4.94325 69.5856 7.83568 66.984 11.1263C62.7216 16.5178 58.3291 19.4634 51.7858 21.4487C47.3009 20.3739 42.3592 19.794 37.1934 19.794C27.1515 19.794 17.7703 20.5207 11.0097 24.2503C4.24918 27.9799 0.0234375 34.8741 0.0234375 41.0516C0.1487 54.7225 5.98495 65.1151 13.8761 69.6471C21.7991 74.1504 30.3068 73.408 36.9743 73.408C44.1319 73.408 55.6316 71.1523 63.3134 66.6326C73.2399 59.0777 74.3007 54.7226 74.3947 41.0516C74.3947 37.0349 72.4798 33.3519 69.2904 30.2317C69.5005 26.7836 70.1768 24.2749 71.9552 21.5639C74.0072 18.4361 77.5834 15.1012 82.5364 11.0744C85.3233 7.87915 86.7012 7.1057 82.3925 2.60864C78.3297 -1.05724 77.3724 -0.459071 74.8644 1.94121ZM80.3131 4.82414C81.1363 6.00381 82.0863 6.20454 81.6479 7.36322C80.1701 9.45255 69.5047 17.1135 68.0139 21.4473C67.3548 24.4902 66.7141 24.7965 66.1945 27.7439C63.7789 26.0744 59.6476 23.9243 57.1652 22.9746C66.0137 19.0016 72.933 9.97656 77.7445 3.50005C78.778 2.82211 79.6414 4.34132 80.3131 4.82414ZM74.5142 8.62034C74.5142 8.62034 75.1767 9.41555 75.7332 9.98592C76.2897 10.5561 76.6113 10.6418 77.3069 9.92896C78.0024 9.2161 79.5338 8.7014 78.9773 8.1311C78.0971 7.50223 76.8035 6.11291 76.0794 6.60068L74.5142 8.62034ZM37.1934 23.581C42.3906 23.581 47.2999 24.2751 51.6605 25.4267C54.2704 26.302 58.3943 27.628 60.8982 28.9909C66.8312 32.264 70.1359 36.5435 70.1359 41.0518C70.1359 42.5053 69.8006 43.9406 69.1339 45.316C62.1908 38.7939 50.737 33.7621 37.6631 33.7621C30.8928 33.7621 22.9902 34.8636 17.0163 37.5616C12.3539 39.6675 9.00896 43.7496 6.91252 47.8301C5.18629 45.7109 4.28211 43.4172 4.28211 41.0518C4.28211 36.5435 6.57348 31.4663 12.5064 28.1932C18.4394 24.9201 27.8657 23.581 37.1934 23.581ZM37.5274 37.8338C49.9948 37.8338 60.8625 42.9651 66.754 48.6893C65.2561 50.284 61.0757 52.4957 58.6773 53.8187C52.7444 57.0918 44.1119 59.6526 34.7851 59.7841C25.9519 59.9087 22.5878 59.4973 16.6548 56.2242C15.3497 55.5044 11.0574 51.5963 10.0126 50.7895C11.3299 47.2946 13.7101 43.7083 18.3469 41.6142C23.6462 39.2208 31.271 37.8338 37.5274 37.8338ZM5.22155 51.9351C6.91862 53.571 13.1043 58.9305 15.4245 60.2104C22.185 63.94 26.1848 64.0149 36.2268 64.0149C46.2688 64.0149 56.3923 60.0882 63.1529 56.3586C65.2655 55.1932 67.1554 53.8438 68.7581 52.3807C66.8951 57.8956 64.9205 61.5279 60.7971 63.954C54.1996 67.8357 44.1644 69.9685 37.2931 69.9685C30.9339 69.9685 22.497 70.405 15.6396 66.5072C11.2356 64.0039 7.00658 57.6953 5.22155 51.9351Z" fill="white"/>
</svg>
